GRF
version=1
nRows=12
nColumns=19
inDegrees=no
endheader
time	ground_force_vx	ground_force_vy	ground_force_vz	ground_force_px	ground_force_py	ground_force_pz	ground_torque_x	ground_torque_y	ground_torque_z	1_ground_force_vx	1_ground_force_vy	1_ground_force_vz	1_ground_force_px	1_ground_force_py	1_ground_force_pz	1_ground_torque_x	1_ground_torque_y	1_ground_torque_z
      1.75000000	    -44.53062403	    326.01472738	     -1.71922977	      0.18046699	     -0.00000000	     -0.05787331	      0.00000000	      0.45021952	     -0.00000000	     41.32039792	    393.17822638	     -5.00122654	     -0.23206405	      0.00000000	     -0.03631965	      0.00000000	      1.14867984	     -0.00000000
      1.75100000	    -44.52423926	    326.17093726	     -1.67838429	      0.18043529	     -0.00000000	     -0.05794217	      0.00000000	      0.45215011	     -0.00000000	     41.31126535	    393.16128130	     -5.00552678	     -0.23206750	      0.00000000	     -0.03631878	      0.00000000	      1.15508085	     -0.00000000
      1.75200000	    -44.51706746	    326.32624813	     -1.63526267	      0.18040261	     -0.00000000	     -0.05801418	      0.00000000	      0.45377784	     -0.00000000	     41.30148604	    393.14111528	     -5.01086105	     -0.23207100	      0.00000000	     -0.03631759	      0.00000000	      1.16152160	     -0.00000000
      1.75300000	    -44.50913925	    326.48050092	     -1.58992603	      0.18036897	     -0.00000000	     -0.05808920	      0.00000000	      0.45510742	     -0.00000000	     41.29108284	    393.11775260	     -5.01724991	     -0.23207455	      0.00000000	     -0.03631606	      0.00000000	      1.16799544	     -0.00000000
      1.75400000	    -44.50048507	    326.63353404	     -1.54243514	      0.18033439	     -0.00000000	     -0.05816710	      0.00000000	      0.45614435	     -0.00000000	     41.28007961	    393.09121894	     -5.02471118	     -0.23207818	      0.00000000	     -0.03631414	      0.00000000	      1.17449580	     -0.00000000
      1.75500000	    -44.49113508	    326.78518355	     -1.49285028	      0.18029888	     -0.00000000	     -0.05824774	      0.00000000	      0.45689488	     -0.00000000	     41.26850094	    393.06154112	     -5.03325977	     -0.23208190	      0.00000000	     -0.03631181	      0.00000000	      1.18101618	     -0.00000000
      1.75600000	    -44.48111904	    326.93528350	     -1.44123104	      0.18026245	     -0.00000000	     -0.05833097	      0.00000000	      0.45736591	     -0.00000000	     41.25637191	    393.02874704	     -5.04290763	     -0.23208571	      0.00000000	     -0.03630904	      0.00000000	      1.18755015	     -0.00000000
      1.75700000	    -44.47046621	    327.08366617	     -1.38763629	      0.18022512	     -0.00000000	     -0.05841665	      0.00000000	      0.45756490	     -0.00000000	     41.24371785	    392.99286550	     -5.05366366	     -0.23208963	      0.00000000	     -0.03630579	      0.00000000	      1.19409142	     -0.00000000
      1.75800000	    -44.45920527	    327.23016242	     -1.33212406	      0.18018691	     -0.00000000	     -0.05850465	      0.00000000	      0.45749982	     -0.00000000	     41.23056399	    392.95392618	     -5.06553363	     -0.23209366	      0.00000000	     -0.03630203	      0.00000000	      1.20063382	     -0.00000000
      1.75900000	    -44.44736417	    327.37460209	     -1.27475146	      0.18014783	     -0.00000000	     -0.05859482	      0.00000000	      0.45717905	     -0.00000000	     41.21693524	    392.91195957	     -5.07852014	     -0.23209781	      0.00000000	     -0.03629775	      0.00000000	      1.20717134	     -0.00000000
      1.76000000	    -44.43497006	    327.51681437	     -1.21557472	      0.18010788	     -0.00000000	     -0.05868702	      0.00000000	      0.45661130	     -0.00000000	     41.20285587	    392.86699701	     -5.09262258	     -0.23210209	      0.00000000	     -0.03629291	      0.00000000	      1.21369816	     -0.00000000
      1.76100000	    -44.42204917	    327.65662825	     -1.15464909	      0.18006710	     -0.00000000	     -0.05878113	      0.00000000	      0.45580555	     -0.00000000	     41.18834918	    392.81907067	     -5.10783708	     -0.23210649	      0.00000000	     -0.03628750	      0.00000000	      1.22020865	     -0.00000000
